<svg xmlns="http://www.w3.org/2000/svg" xmlns:xlink="http://www.w3.org/1999/xlink" preserveAspectRatio="xMidYMid" width="93" height="93" viewBox="0 0 93 93">
  <defs>
    <style>
      .cls-1 {
        fill: #000;
        fill-rule: evenodd;
      }
    </style>
  </defs>
  <path d="M46.497,93.006 C20.854,93.006 -0.009,72.143 -0.009,46.500 C-0.009,20.857 20.854,-0.006 46.497,-0.006 C72.143,-0.006 93.009,20.857 93.009,46.500 C93.009,72.143 72.143,93.006 46.497,93.006 ZM46.497,4.260 C23.206,4.260 4.257,23.208 4.257,46.500 C4.257,69.792 23.206,88.740 46.497,88.740 C69.792,88.740 88.743,69.792 88.743,46.500 C88.743,23.208 69.792,4.260 46.497,4.260 ZM52.180,72.002 L40.814,72.002 L40.814,52.183 L20.995,52.183 L20.995,40.817 L40.814,40.817 L40.814,20.998 L52.180,20.998 L52.180,40.817 L71.994,40.817 L71.994,52.183 L52.180,52.183 L52.180,72.002 Z" class="cls-1"/>
</svg>
